{
    "asset" : {
        "generator" : "Khronos glTF Blender I/O v1.4.40",
        "version" : "2.0"
    },
    "scene" : 0,
    "scenes" : [
        {
            "name" : "Scene",
            "nodes" : [
                24
            ]
        }
    ],
    "nodes" : [
        {
            "mesh" : 0,
            "name" : "Body",
            "translation" : [
                0,
                2.5635476112365723,
                0
            ]
        },
        {
            "name" : "Head",
            "translation" : [
                0,
                1.064913272857666,
                0
            ]
        },
        {
            "children" : [
                1
            ],
            "name" : "Bone.002",
            "translation" : [
                0,
                4.750329971313477,
                0
            ]
        },
        {
            "name" : "Hand.L",
            "rotation" : [
                0.05881936103105545,
                -0.0025699099060148,
                -0.0043449620716273785,
                0.9982559084892273
            ],
            "scale" : [
                1,
                0.9999999403953552,
                1
            ],
            "translation" : [
                2.5754343369044363e-07,
                3.3942742347717285,
                0
            ]
        },
        {
            "name" : "Bone.006.L.001",
            "rotation" : [
                0.8130298852920532,
                -0.3244451880455017,
                -0.30772751569747925,
                0.3728557527065277
            ],
            "scale" : [
                1.0000001192092896,
                1.000000238418579,
                1.000000238418579
            ],
            "translation" : [
                2.797529532472254e-07,
                3.3942742347717285,
                -6.004924557601043e-08
            ]
        },
        {
            "children" : [
                3,
                4
            ],
            "name" : "Bone.006.L",
            "rotation" : [
                -0.009829881601035595,
                0.00023259491717908531,
                -0.0576118566095829,
                0.9982906579971313
            ],
            "scale" : [
                0.9999998807907104,
                0.9999998211860657,
                1
            ],
            "translation" : [
                1.2128946735856516e-08,
                3.6967573165893555,
                -2.1835790953161904e-09
            ]
        },
        {
            "children" : [
                5
            ],
            "name" : "Bone.005.L",
            "rotation" : [
                -4.567508682384869e-08,
                -1.6202067243398233e-08,
                -0.6527162194252014,
                0.7576025128364563
            ],
            "scale" : [
                0.9999999403953552,
                0.9999997615814209,
                1
            ],
            "translation" : [
                8.940691031966708e-08,
                2.867042303085327,
                1.1368683772161603e-13
            ]
        },
        {
            "children" : [
                6
            ],
            "name" : "Bone.004.L",
            "rotation" : [
                9.802391787161469e-08,
                -2.171786483984306e-08,
                -0.7219398021697998,
                0.6919558644294739
            ],
            "scale" : [
                0.9999999403953552,
                0.9999999403953552,
                1
            ],
            "translation" : [
                -9.753782587862854e-21,
                4.750329971313477,
                5.684341886080802e-14
            ]
        },
        {
            "name" : "Hand.R",
            "rotation" : [
                0.05881936103105545,
                0.0025699099060148,
                0.004344962537288666,
                0.9982559084892273
            ],
            "scale" : [
                1,
                0.9999999403953552,
                1
            ],
            "translation" : [
                -2.5854151886051113e-07,
                3.3942742347717285,
                1.4001831694088196e-08
            ]
        },
        {
            "name" : "Bone.006.R.001",
            "rotation" : [
                0.8130300045013428,
                0.3244452178478241,
                0.30772748589515686,
                0.3728557825088501
            ],
            "scale" : [
                1.0000001192092896,
                1.000000238418579,
                1.0000001192092896
            ],
            "translation" : [
                -8.338025736520649e-08,
                3.3942744731903076,
                1.4568601613973442e-07
            ]
        },
        {
            "children" : [
                8,
                9
            ],
            "name" : "Bone.006.R",
            "rotation" : [
                -0.00982988066971302,
                -0.00023259484441950917,
                0.0576118566095829,
                0.9982906579971313
            ],
            "scale" : [
                0.9999998211860657,
                0.9999997615814209,
                1
            ],
            "translation" : [
                2.2470689486908668e-07,
                3.6967573165893555,
                -2.342900096152789e-09
            ]
        },
        {
            "children" : [
                10
            ],
            "name" : "Bone.005.R",
            "rotation" : [
                -4.565321276572831e-08,
                1.622964518332992e-08,
                0.6529250741004944,
                0.7574225068092346
            ],
            "scale" : [
                0.9999998807907104,
                0.9999998807907104,
                1
            ],
            "translation" : [
                -8.940691031966708e-08,
                2.867042303085327,
                1.1368683772161603e-13
            ]
        },
        {
            "children" : [
                11
            ],
            "name" : "Bone.004.R",
            "rotation" : [
                9.802391787161469e-08,
                2.171786483984306e-08,
                0.7219398021697998,
                0.6919558644294739
            ],
            "scale" : [
                0.9999999403953552,
                0.9999999403953552,
                1
            ],
            "translation" : [
                9.753782587862854e-21,
                4.750329971313477,
                5.684341886080802e-14
            ]
        },
        {
            "children" : [
                2,
                7,
                12
            ],
            "name" : "Bone.001",
            "translation" : [
                0,
                1,
                0
            ]
        },
        {
            "children" : [
                13
            ],
            "name" : "Bone"
        },
        {
            "name" : "Foot.L",
            "rotation" : [
                -0.7071068286895752,
                -3.7683246745245924e-08,
                5.372261284719571e-07,
                0.7071068286895752
            ],
            "translation" : [
                7.45072448182782e-09,
                5.7347588539123535,
                3.875372245332187e-14
            ]
        },
        {
            "children" : [
                15
            ],
            "name" : "Bone.008.L",
            "rotation" : [
                -1.5817018805819316e-08,
                -8.711763399560368e-08,
                -0.0008229535887949169,
                0.9999997615814209
            ],
            "scale" : [
                0.9999999403953552,
                1,
                1
            ],
            "translation" : [
                1.2587510411776748e-07,
                7.104255199432373,
                -7.024922635788522e-14
            ]
        },
        {
            "children" : [
                16
            ],
            "name" : "Bone.007.L.001",
            "rotation" : [
                4.2632828467503714e-07,
                -6.250622419656793e-08,
                0.93690425157547,
                0.3495863378047943
            ],
            "scale" : [
                1.0000005960464478,
                1,
                1
            ],
            "translation" : [
                1.2151976136465237e-07,
                2.109646797180176,
                -1.8683610499112442e-14
            ]
        },
        {
            "children" : [
                17
            ],
            "name" : "Bone.005.L.001",
            "rotation" : [
                -1.693546920478184e-07,
                -8.096725068185151e-09,
                -0.938103199005127,
                0.3463558554649353
            ],
            "scale" : [
                1.000000238418579,
                1,
                1
            ],
            "translation" : [
                -1.6807443614652584e-07,
                1.7258939743041992,
                6.493152640996841e-14
            ]
        },
        {
            "name" : "Foot.R",
            "rotation" : [
                -0.7071068286895752,
                3.7683246745245924e-08,
                -5.372261284719571e-07,
                0.7071068286895752
            ],
            "translation" : [
                -7.45072448182782e-09,
                5.7347588539123535,
                3.875372245332187e-14
            ]
        },
        {
            "children" : [
                19
            ],
            "name" : "Bone.008.R",
            "rotation" : [
                -1.5817018805819316e-08,
                8.711763399560368e-08,
                0.0008229535887949169,
                0.9999997615814209
            ],
            "scale" : [
                0.9999999403953552,
                1,
                1
            ],
            "translation" : [
                -1.2587510411776748e-07,
                7.104255199432373,
                -7.024922635788522e-14
            ]
        },
        {
            "children" : [
                20
            ],
            "name" : "Bone.007.R.001",
            "rotation" : [
                4.2632828467503714e-07,
                6.250622419656793e-08,
                -0.93690425157547,
                0.3495863378047943
            ],
            "scale" : [
                1.0000005960464478,
                1,
                1
            ],
            "translation" : [
                -1.2151976136465237e-07,
                2.109646797180176,
                -1.8683610499112442e-14
            ]
        },
        {
            "children" : [
                21
            ],
            "name" : "Bone.005.R.001",
            "rotation" : [
                -1.693546920478184e-07,
                8.096725068185151e-09,
                0.938103199005127,
                0.3463558554649353
            ],
            "scale" : [
                1.000000238418579,
                1,
                1
            ],
            "translation" : [
                1.6807443614652584e-07,
                1.7258939743041992,
                6.493152640996841e-14
            ]
        },
        {
            "children" : [
                18,
                22
            ],
            "name" : "Bone.004",
            "rotation" : [
                1,
                0,
                0,
                0
            ]
        },
        {
            "children" : [
                0,
                14,
                23
            ],
            "name" : "Amature"
        }
    ],
    "materials" : [
        {
            "doubleSided" : true,
            "name" : "Material",
            "pbrMetallicRoughness" : {
                "baseColorFactor" : [
                    0.800000011920929,
                    0.800000011920929,
                    0.800000011920929,
                    1
                ],
                "metallicFactor" : 0,
                "roughnessFactor" : 0.4000000059604645
            }
        }
    ],
    "meshes" : [
        {
            "name" : "Cube",
            "primitives" : [
                {
                    "attributes" : {
                        "POSITION" : 0,
                        "NORMAL" : 1,
                        "TEXCOORD_0" : 2,
                        "TEXCOORD_1" : 3
                    },
                    "indices" : 4,
                    "material" : 0
                }
            ]
        }
    ],
    "accessors" : [
        {
            "bufferView" : 0,
            "componentType" : 5126,
            "count" : 1636,
            "max" : [
                9.146523475646973,
                9.64270305633545,
                2.365784168243408
            ],
            "min" : [
                -9.146523475646973,
                -15.967529296875,
                -2.5277204513549805
            ],
            "type" : "VEC3"
        },
        {
            "bufferView" : 1,
            "componentType" : 5126,
            "count" : 1636,
            "type" : "VEC3"
        },
        {
            "bufferView" : 2,
            "componentType" : 5126,
            "count" : 1636,
            "type" : "VEC2"
        },
        {
            "bufferView" : 3,
            "componentType" : 5126,
            "count" : 1636,
            "type" : "VEC2"
        },
        {
            "bufferView" : 4,
            "componentType" : 5123,
            "count" : 4368,
            "type" : "SCALAR"
        }
    ],
    "bufferViews" : [
        {
            "buffer" : 0,
            "byteLength" : 19632,
            "byteOffset" : 0
        },
        {
            "buffer" : 0,
            "byteLength" : 19632,
            "byteOffset" : 19632
        },
        {
            "buffer" : 0,
            "byteLength" : 13088,
            "byteOffset" : 39264
        },
        {
            "buffer" : 0,
            "byteLength" : 13088,
            "byteOffset" : 52352
        },
        {
            "buffer" : 0,
            "byteLength" : 8736,
            "byteOffset" : 65440
        }
    ],
    "buffers" : [
        {
            "byteLength" : 74176,
            "uri" : "data:application/octet-stream;base64,"
        }
    ]
}
